<?xml version="1.0"?>
<svg xmlns="http://www.w3.org/2000/svg" enable-background="new 0 0 144.5 66.1999969" viewBox="0 0 144.5 66.1999969" width="300" height="137"><g fill="#002e5f"><path d="m52.190834 36.7681732h2.0304222l4.7609901 7.3215218v-7.3215218h2.1204376v11.1323128h-2.0404243l-4.7509842-7.3015137v7.3015137h-2.1204414z"/><path d="m69.014328 36.4881172c1.5325546-.0193558 3.0039444.6003723 4.0608368 1.7103539 2.2475281 2.3070068 2.2475281 5.9847183 0 8.2917213-2.2500305 2.2731247-5.9167709 2.2918434-8.1898804.0418167-.0140152-.0138664-.0279541-.0278053-.0418243-.0418167-1.0844269-1.0907974-1.6830368-2.5728951-1.6603432-4.1108513-.0074387-1.0278473.2583427-2.0392189.7701607-2.9306107 1.0355988-1.7857285 2.9368286-2.8922462 5.0010376-2.9106026m0 2.0804292c-.9644089-.0323296-1.8989563.3371429-2.5805359 1.0202103-.6900101.736824-1.0510178 1.7223816-1.000206 2.7305679-.0469284 1.129818.4470901 2.2144318 1.3302765 2.9206047.6613235.5528297 1.4986038.8508415 2.3604889.8401756.9613342-.0014305 1.8784866-.40382 2.5305252-1.1102295 1.4139175-1.511219 1.4139175-3.8598938 0-5.3711128-.6709976-.7197876-1.6166916-1.1198921-2.6005402-1.1002274"/><path d="m77.0259933 36.7681732h2.2404633c.8895187-.0478821 1.780426.0639038 2.6305389.3300705.5193787.2255249.9561386.6063881 1.2502594 1.0902252.3325729.5513268.4992599 1.1867981.4801102 1.8303795.1026306 1.3756561-.7810974 2.6321297-2.1104431 3.0006218l2.6405487 5.0010414h-2.3204803l-2.4605103-4.8310051h-.1900406v4.7109756h-2.1604462zm2.1204453 4.3509026h.660141c.4783783.0398445.9586563-.0499916 1.3902817-.2600517.2559357-.2014694.3977356-.5149384.3800735-.8401756.0079803-.2283669-.0587463-.4531136-.1900406-.6401329-.1207123-.1821175-.3010788-.3165054-.5101089-.3800774-.3745728-.1010399-.762886-.1415558-1.1502457-.1200256h-.5801163z"/><path d="m86.1578827 36.7681732h2.5105286c1.230011-.0716209 2.4604416.1334496 3.6007462.6001244.8556137.44664 1.553772 1.1447983 2.000412 2.0004158.5245819.9692688.786644 2.0588531.7601624 3.160656.0091705.8062057-.1333389 1.606945-.4200897 2.3604889-.2744064.6679039-.6947632 1.2659645-1.2302551 1.7503624-.4559937.4536018-1.0104828.7958794-1.6203384 1.0002098-.9830322.2280769-1.992363.3222809-3.0006256.280056h-2.6005402v-11.1523133zm2.100441 2.0004158v7.0014534h1.000206c.7180099.0638542 1.4413528-.0282669 2.1204376-.2700577.4398956-.2626076.7889175-.653511 1.0002136-1.1202316.2972336-.6024895.4415131-1.2689171.4200821-1.9403992.0599213-1.0155182-.3019791-2.0107422-1.000206-2.7505722-.8063126-.6549377-1.8357544-.9705811-2.8705978-.8801842z"/><path d="m55.9316139 22.085125h2.1404419l4.3008919 11.1223068h-2.2004547l-.870182-2.2904758h-4.5609474l-.9001884 2.2904758h-2.2004585zm1.0802231 2.9306087-1.4903145 3.8207932h3.0006256z"/><path d="m64.0833054 22.085125h2.1404419v3.8307953l3.0206299-3.8307953h2.5405197l-3.8807983 4.961031 4.2608871 6.1612759h-2.5105286l-3.4307098-4.9410229v4.9410229h-2.1404419z"/><path d="m77.3760605 22.085125h2.1504517l4.2808838 11.1223068h-2.2004471l-.8701859-2.2904758h-4.5309372l-.9101944 2.2904758h-2.2004547zm1.1002273 2.9306087-1.490303 3.8207932h3.000618z"/><path d="m85.6277771 22.085125h2.5105209c1.2300186-.0716209 2.4604416.1334515 3.6007462.6001244.8494263.4318657 1.5471878 1.1121826 2.0004196 1.950407.5202866.970911.7820587 2.0593433.7601547 3.160656.0116806.8073273-.1344223 1.6091614-.4300842 2.3604908-.2540207.6778259-.6574097 1.289753-1.1802444 1.7903709-.4586334.4551926-1.0167542.797596-1.6303406 1.000206-.9842224.220047-1.9929276.310833-3.000618.2700577h-2.6305542zm2.1004333 2.0004158v7.0014534h1.000206c.7158051.0437088 1.4325409-.068922 2.1004333-.3300686.4693909-.2466698.8452301-.6400776 1.0702286-1.1202335.2984161-.6020794.4427567-1.2688065.4200821-1.940403.0595245-1.0124722-.3025131-2.0044498-1.000206-2.7405682-.8063126-.6549358-1.8357544-.9705791-2.8705978-.8801823z"/><path d="m96.710083 22.085125h6.0712585v2.0704288h-3.9708252v2.0104179h3.9708252v2.0304222h-3.9708252v2.9306087h3.9708252v2.0804291h-6.0712585z"/><path d="m106.5721283 22.085125h2.0604248l2.5805359 7.7516098 2.6005402-7.7516098h2.0604248l1.8703918 11.1223068h-2.0504303l-1.2002487-7.0314579-2.3604889 7.0314579h-1.8603821l-2.3404846-7.0314579-1.2302628 7.0314579h-2.0604248z"/><path d="m119.5148087 22.085125h2.1004333v11.1223068h-2.1004333v-5.7011814z"/><path d="m124.2457962 22.085125h6.0712509v2.0704288h-3.9708176v2.0104179h3.9708176v2.0304222h-3.9708176v2.9306087h3.9708176v2.0804291h-6.0712509z"/><path d="m78.0462036 9.3424797-1.4803162 1.4102926c-.855896-.9895067-2.0925827-1.5678387-3.4007034-1.5903301-2.0545578-.0388546-3.7516022 1.5951958-3.7904587 3.6497545-.0007629.0403385-.0008698.0806866-.0003204.1210289-.0170746.6972542.1484375 1.386857.4801025 2.0004148.3212662.5695572.7960587 1.0374203 1.370285 1.3502817.6116562.3386211 1.3013611.5110474 2.000412.500103.5788498.0062485 1.1521606-.1131916 1.6803513-.3500729.6275711-.3174629 1.195961-.7403641 1.6803513-1.2502594l1.4302979 1.5003109c-.6687546.6939068-1.4585266 1.2599583-2.3304901 1.6703472-.7952423.3159332-1.6448898.4722691-2.5005188.4600945-1.5811768.0546761-3.1162872-.5376968-4.2508774-1.6403389-1.1076813-1.1197968-1.7047043-2.6467266-1.6503448-4.2208767-.0533447-2.083231 1.0729218-4.0183868 2.9106064-5.0010381.9163437-.5140853 1.9499207-.7828155 3.0006256-.7801614.9152679-.0023613 1.8199463.1956458 2.6505508.5801201.8432693.3860779 1.5937042.948904 2.2004547 1.650342"/><path d="m59.452343 7.3920751h6.0812569v2.0704293h-3.9708214v2.0104179h3.9708214v2.0304213h-3.9708214v2.9306087h3.9708214v2.080431h-6.0812569z"/><path d="m51.5507011 7.3920751h6.1512756v2.0804324h-2.0304184v9.0418758h-2.1404457v-9.0418758h-1.9804115z"/><path d="m80.0466156 7.3920751h2.1504517v4.1908698h3.7107697v-4.1908698h2.1404419v11.1223087h-2.1404419v-4.8810129h-3.7107697v4.8810129h-2.1504517z"/><path d="m90.8388596 7.3920751h2.0304184l4.760994 7.3215203v-7.3215203h2.1104355v11.1223087h-2.0304185l-4.7509842-7.3015156v7.3015156h-2.1204453v-11.1223087z"/><path d="m102.2112198 7.3920751h2.1104431v11.1223087h-2.1104431v-5.1110601z"/><path d="m138.4287262 7.3920751h6.0712738v2.0704293h-3.9708252v2.0104179h3.9708252v2.0304213h-3.9708252v2.9306087h3.9708252v2.080431h-6.0712738z"/><path d="m112.8834381 8.9023886-1.5703278 1.3802872c-.3434525-.6305084-.9682846-1.058219-1.6803513-1.150238-.2473755-.0101385-.4897079.0718298-.6801376.2300472-.163147.1154099-.2630386.3003874-.2700577.500104.0004807.1933041.0675964.3805294.1900406.5301094.4685287.5123243.9732666.9903202 1.5103149 1.4302969.8101654.6701393 1.3002701 1.1002293 1.4703064 1.2802658.3764725.3544722.6849365.774806.9101868 1.2402573.531662 1.2116117.2656021 2.6252928-.6701355 3.5607386-.6756897.6079044-1.5623627.9273949-2.4705124.8901844-.7326508.0182343-1.4539185-.183857-2.0704269-.5801201-.6541901-.4682522-1.1747971-1.099184-1.5103226-1.8303795l1.7803726-1.080225c.5301056 1.0002079 1.150238 1.4803066 1.8503799 1.4803066.3324585.0090466.6565704-.1049232.9101944-.3200665.2307816-.1720924.3677292-.442276.370079-.7301502-.0078354-.2754812-.1023331-.5414782-.27005-.7601585-.372612-.4281778-.7882156-.8169641-1.2402573-1.1602402-.8782501-.6559772-1.6682587-1.4224539-2.3504868-2.2804737-.3278198-.4746618-.5118713-1.0337591-.5301056-1.6103334-.0148926-.7658787.3112488-1.498786.8901825-2.0004158.5826187-.5570092 1.36483-.8561978 2.1704483-.8301721.5525055.0008788 1.0971298.1310425 1.5903244.3800788.624115.3678403 1.1764679.845644 1.6303406 1.4102926"/><path d="m125.5560608 9.3424797-1.4803085 1.4102926c-.8543243-.9915895-2.0919952-1.570385-3.4007034-1.5903301-2.0547409-.0278063-3.7429733 1.6153469-3.7707825 3.670084-.0004578.0335646-.0004578.0671349 0 .1006994-.017067.6972542.1484375 1.386857.4801025 2.0004148.3181915.5719109.7937622 1.0405397 1.370285 1.3502817.6106033.3412876 1.3010483.5138969 2.0004196.500103.5632629-.0086555 1.1185303-.1346989 1.6303329-.3700771.6227875-.3204002 1.1874084-.7430201 1.6703491-1.2502594l1.4403 1.5003109c-.6687546.6939068-1.4585266 1.2599583-2.3304901 1.6703472-.7954559.3151817-1.6449585.471489-2.5005188.4600945-1.5815735.0570221-3.117569-.535696-4.2508774-1.6403408-1.1076813-1.1197948-1.7047043-2.6467247-1.6503448-4.2208748-.0266113-1.0497198.2326889-2.0869207.7501526-3.0006227.5184326-.8763504 1.2651749-1.5954266 2.1604538-2.0804319.9163437-.5140853 1.9499207-.7828155 3.0006256-.7801619 1.8614807.0030341 3.6291428.8174744 4.8410034 2.230464"/><path d="m127.6364975 7.3920751h2.150444v4.1908698h3.7107697v-4.1908698h2.1404419v11.1223087h-2.1404419v-4.8810129h-3.7107697v4.8810129h-2.150444z"/><path d="m44.2191811 47.9104881-14.743063-11.0522957h-29.4761181v-36.8476486h36.8476486l7.3715324 7.3715301v40.5284142z"/></g><path d="m44.2191811 47.9104881-14.743063-11.0522957 7.3715305-36.8476486 7.3715324 7.3715301v40.5284142z" fill="#ce0538"/><path d="m52.5509109 66.0242462v-8.1516914h1.6903496c.8931198-.038475 1.7868881.0593338 2.6505508.2900581.7620964.2567101 1.4144859.7645149 1.8503838 1.4403.4413376.7282257.6603508 1.5695114.6301308 2.4205055.0135956.7507477-.169136 1.4920311-.5301094 2.1504478-.3118248.5817642-.7885246 1.0584641-1.3702812 1.370285-.7430382.3366928-1.5557594.4910049-2.370491.4500885zm.780159-.7701568h.9401932c.7869759.0294571 1.5743103-.0479279 2.3404922-.2300491.593586-.1819611 1.1059799-.5636063 1.4503021-1.0802269.3622131-.5660019.5436211-1.2288284.5201073-1.9003944.0202408-.7095757-.1788483-1.4081268-.570118-2.0004158-.3791199-.5577583-.9419174-.9648132-1.590332-1.1502419-.8258095-.1909142-1.6737976-.2683067-2.5205231-.2300453h-.5301132z" fill="#ce0538"/><path d="m65.7936554 64.0238342.6501389.340065c-.1855621.374588-.4361725.7132492-.7401505 1.000206-.2895508.2630234-.6299591.4638748-1.000206.5901184-.3817062.1369095-.7847672.2046509-1.1902542.2000427-.8822517.0356445-1.7327003-.3325195-2.3104782-1.0002136-.502861-.5960922-.7791481-1.350563-.7801628-2.1304283-.0005684-.7269707.2463608-1.4324722.7001457-2.0004158.5666695-.7429161 1.4565239-1.1673622 2.3904953-1.1402359.9549332-.0333633 1.8686752.3900719 2.4605103 1.1402359.4388809.5741196.6745987 1.2777748.6701355 2.0004158h-5.4211197c-.0099487.6419525.2304001 1.2625618.6701355 1.7303658.4170837.4361343.9969215.6789474 1.6003304.6701355.3068886-.0027542.6111565-.0568466.9001884-.1600418.2701263-.0986328.5206985-.2442322.7401505-.4300842.2574615-.2372895.4797439-.5100861.6601409-.8101655zm0-1.6303405c-.0825043-.3616486-.2391739-.7022285-.4600906-1.0002098-.2091904-.2561989-.4767075-.4585533-.7801666-.5901222-.3119354-.1506958-.6537743-.2293167-1.0002022-.2300453-.5610962-.0117378-1.1052933.1923332-1.5203171.570118-.3477592.337513-.590847.7681236-.7001457 1.2402573z" fill="#ce0538"/><path d="m68.2141571 57.5124817c.1699524-.0021095.3330765.0667686.4500885.1900368.120369.1190071.1886902.2808418.1900482.4500961.0009155.1697159-.0677719.3323898-.1900482.4500923-.117012.1232719-.2801361.1921501-.4500885.1900406-.3512878-.0053673-.6347656-.2888451-.6401291-.6401329-.0033569-.1701927.0657196-.3338051.1900406-.4500961.1147385-.1265107.2793961-.1960335.4500885-.1900368zm-.3900833 2.5105209h.7801666v6.0012436h-.7801666z" fill="#ce0538"/><path d="m70.0645447 60.0230026h.7801666v1.0802269c.2653427-.3760262.6059418-.692791 1.000206-.9301949.3781815-.2022591.8014221-.3054886 1.2302551-.3000603.4250565-.0089417.8430557.1094933 1.2002487.3400688.3384552.2278519.605484.5468903.7701569.9201889.2167053.5721092.3285141 1.1785965.3300705 1.7903748v3.1006393h-.780159v-2.8805962c.0137787-.4648781-.0130005-.9300652-.0800171-1.3902893-.0645905-.3509827-.2482986-.6689339-.5201111-.9001884-.2901154-.2097511-.6425323-.3154716-1.000206-.3000603-.4631805-.0012665-.9110565.165802-1.2602615.4700966-.3600006.2955818-.6158752.6986809-.7301559 1.1502419-.0961075.5411644-.1329956 1.0911865-.1100235 1.6403389v2.2104568h-.780159z" fill="#ce0538"/><path d="m81.9070053 64.0238342.660141.340065c-.1889877.3724823-.4391861.7105865-.7401505 1.000206-.2917938.259964-.6315613.4604263-1.0002136.5901184-.3816986.1369095-.7847595.2046509-1.1902466.2000427-.8828049.0386276-1.7344971-.3300705-2.3104782-1.0002136-.5066986-.5938568-.7835236-1.3497887-.7801666-2.1304283-.0005722-.7269707.2463608-1.4324722.7001419-2.0004158.5644989-.745575 1.4558105-1.170723 2.3904953-1.1402359.9549408-.0333672 1.8686752.3900719 2.4605179 1.1402359.4388809.5741196.6745987 1.2777748.6701355 2.0004158h-5.3911209c-.0142517.6427155.2267151 1.264904.6701431 1.7303658.4156647.4382095.9964447.6814041 1.6003265.6701355.303627-.0027313.6046143-.0568466.8901825-.1600418.2711639-.0964279.52211-.2422485.7401581-.4300842.252121-.23452.4648896-.508072.6301346-.8101655zm0-1.6303405c-.074791-.3624001-.2284622-.7038879-.4500961-1.0002098-.2134094-.2517662-.4798126-.4532776-.780159-.5901222-.3119354-.1506958-.6537781-.2293167-1.000206-.2300453-.5610886-.0117378-1.1052856.1923332-1.5203094.570118-.3747406.3331757-.6455841.7672272-.7801743 1.2502594h4.5309448z" fill="#ce0538"/><path d="m86.8680344 58.6627197v-.7901649h4.3008957l-3.4107132 7.3515205h3.2406693v.8001709h-4.5009308l3.440712-7.3615265z" fill="#ce0538"/><path d="m92.2591476 60.0230026h.7701569v2.810585c-.0174713.476078.0194397.9525909.1100235 1.4202957.1024323.3599319.3292694.6718292.6401367.8801804.3287201.2175369.7161484.3292313 1.1102295.3200684.3924866.0078201.778595-.1000137 1.1102295-.3100662.2904816-.2029648.5079117-.4940414.6201324-.8301697.105423-.485939.1457825-.9837341.1200256-1.4803085v-2.810585h.7901688v3.0006218c.0308151.6399269-.0678406 1.2794914-.290062 1.8803902-.1835403.4159927-.4908981.7652588-.8801804 1.000206-.9178467.4802475-2.012764.4802475-2.9306107 0-.3932343-.2301712-.7018738-.5808945-.8801804-1.000206-.2281418-.616745-.3268814-1.2738495-.290062-1.9304047z" fill="#ce0538"/><path d="m99.1005783 57.6625099h.7701569v4.7609901l2.8005829-2.4305038h1.1302261l-3.3106842 2.8806 3.5107346 3.15065h-1.0902252l-3.000618-2.7205658v2.7205658h-.7701569z" fill="#ce0538"/><path d="m104.5517044 60.0230026h.7701569v2.810585c-.0208588.4766159.0194778.9539413.1200256 1.4202957.1021881.3573151.3248138.6682892.630127.8801804.680336.4208374 1.5401306.4208374 2.2204666 0 .2930603-.2002945.5112152-.4923325.6201324-.8301773.1054153-.4859352.1457825-.9837303.1200256-1.4803047v-2.8005791h.7901611v3.0006218c.0308151.6399269-.0678406 1.2794914-.290062 1.8803902-.1762924.4174652-.4811249.7678375-.8701782 1.000206-.9213638.4803162-2.019249.4803162-2.9406128 0-.3909988-.2328796-.6989059-.5827713-.8801804-1.000206-.2225494-.6181717-.3211136-1.2741318-.290062-1.9304047v-2.9506073z" fill="#ce0538"/><path d="m111.3831253 60.0230026h.7701569v1.0802269c.2676849-.3739738.6078262-.6903076 1.000206-.9301949.379097-.1998634.801712-.3029404 1.2302551-.3000603.4250565-.0089417.8430557.1094933 1.2002487.3400688.3448334.2206917.6136551.5418777.7701569.9201889.198082.585434.2829437 1.2032204.2500534 1.8203773v3.0706367h-.7701569v-2.8805962c.017662-.4652901-.0124969-.9311638-.0900192-1.3902893-.0605392-.352459-.2449875-.6717033-.5201035-.9001884-.2882919-.2134323-.6420364-.3195534-1.000206-.3000603-.4631882-.0012665-.9110565.165802-1.2602615.4700966-.3631744.2945786-.6225357.6976509-.7401505 1.1502419-.0908585.54179-.1277161 1.0912666-.1100235 1.6403389v2.2104568h-.7301559z" fill="#ce0538"/><path d="m120.6550446 57.6625099v.7601585c-.2298126-.1056328-.4775772-.1667252-.7301559-.1800385-.1324615-.0045662-.2637253.0265198-.3800735.0900192-.0857544.0458984-.1529236.1201363-.1900406.210041-.0203094.2128944-.0203094.4272385 0 .6401329v.8401794h1.2602615v.6701355h-1.2602615v5.3311081h-.7801666v-5.3611107h-.7901611v-.6401329h.7901611v-1.0002098c-.0166931-.3147774.0239792-.6299667.1200333-.930191.088295-.1852989.2314682-.3389511.4100876-.4400902.2076111-.1160202.4423599-.1747055.6801376-.1700363.2967299.021351.5893324.0818865.8701781.1800348z" fill="#ce0538"/><path d="m122.2653809 57.7525291h.7701569v2.2704735h1.2302551v.6701355h-1.2302551v5.3311081h-.7701569v-5.3611107h-1.0602188v-.6401329h1.0602188z" fill="#ce0538"/></svg>
